{
  "accessors": [
    {
      "bufferView": 2,
      "componentType": 5126,
      "count": 6444,
      "max": [
        0.098381638526916504,
        0.084891796112060547,
        0.046058535575866699
      ],
      "min": [
        -0.34132462739944458,
        -0.16448569297790527,
        -0.066395595669746399
      ],
      "type": "VEC3"
    },
    {
      "bufferView": 2,
      "byteOffset": 77328,
      "componentType": 5126,
      "count": 6444,
      "max": [
        0.99994289875030518,
        0.999625563621521,
        0.99984133243560791
      ],
      "min": [
        -0.99760138988494873,
        -0.99992573261260986,
        -0.99999916553497314
      ],
      "type": "VEC3"
    },
    {
      "bufferView": 1,
      "componentType": 5126,
      "count": 6444,
      "max": [
        0.96924281120300293,
        0.99979299306869507
      ],
      "min": [
        0.00020701895118691027,
        0.00020701895118691027
      ],
      "type": "VEC2"
    },
    {
      "bufferView": 0,
      "componentType": 5125,
      "count": 35094,
      "max": [
        6443
      ],
      "min": [
        0
      ],
      "type": "SCALAR"
    },
    {
      "bufferView": 2,
      "byteOffset": 154656,
      "componentType": 5126,
      "count": 28227,
      "max": [
        0.5965457558631897,
        1.0760661363601685,
        1.9084981679916382
      ],
      "min": [
        -1.1525448560714722,
        -0.3769356906414032,
        -2.0741910934448242
      ],
      "type": "VEC3"
    },
    {
      "bufferView": 2,
      "byteOffset": 493380,
      "componentType": 5126,
      "count": 28227,
      "max": [
        0.99999189376831055,
        0.9999997615814209,
        0.99995064735412598
      ],
      "min": [
        -0.9999849796295166,
        -1,
        -0.99997973442077637
      ],
      "type": "VEC3"
    },
    {
      "bufferView": 3,
      "componentType": 5126,
      "count": 28227,
      "max": [
        0.99988049268722534,
        0.999988853931427,
        0.99984592199325562,
        1
      ],
      "min": [
        -0.99999606609344482,
        -0.99999010562896729,
        -0.99998825788497925,
        1
      ],
      "type": "VEC4"
    },
    {
      "bufferView": 1,
      "byteOffset": 51552,
      "componentType": 5126,
      "count": 28227,
      "max": [
        0.22766190767288208,
        0.99995291233062744
      ],
      "min": [
        0.00015960316522978246,
        4.7136440116446465e-05
      ],
      "type": "VEC2"
    },
    {
      "bufferView": 0,
      "byteOffset": 140376,
      "componentType": 5125,
      "count": 165240,
      "max": [
        28226
      ],
      "min": [
        0
      ],
      "type": "SCALAR"
    },
    {
      "bufferView": 2,
      "byteOffset": 832104,
      "componentType": 5126,
      "count": 4,
      "max": [
        1,
        0,
        1
      ],
      "min": [
        -1,
        0,
        -1
      ],
      "type": "VEC3"
    },
    {
      "bufferView": 2,
      "byteOffset": 832152,
      "componentType": 5126,
      "count": 4,
      "max": [
        0,
        1,
        -0
      ],
      "min": [
        0,
        1,
        -0
      ],
      "type": "VEC3"
    },
    {
      "bufferView": 1,
      "byteOffset": 277368,
      "componentType": 5126,
      "count": 4,
      "max": [
        1,
        1
      ],
      "min": [
        0,
        0
      ],
      "type": "VEC2"
    },
    {
      "bufferView": 0,
      "byteOffset": 801336,
      "componentType": 5125,
      "count": 6,
      "max": [
        3
      ],
      "min": [
        0
      ],
      "type": "SCALAR"
    }
  ],
  "asset": {
    "extras": {
      "author": "Leo Padoveze (https://sketchfab.com/lokileo)",
      "license": "CC-BY-4.0 (http://creativecommons.org/licenses/by/4.0/)",
      "source": "https://sketchfab.com/3d-models/marble-statue-hand-consumed-by-a-tentacle-73bd230c4bea46acb5f9a99de10a4777",
      "title": "Marble statue hand consumed by a tentacle"
    },
    "generator": "Sketchfab-8.50.0",
    "version": "2.0"
  },
  "bufferViews": [
    {
      "buffer": 0,
      "byteLength": 801360,
      "byteOffset": 0,
      "name": "floatBufferViews",
      "target": 34963
    },
    {
      "buffer": 0,
      "byteLength": 277400,
      "byteOffset": 801360,
      "byteStride": 8,
      "name": "floatBufferViews",
      "target": 34962
    },
    {
      "buffer": 0,
      "byteLength": 832200,
      "byteOffset": 1078760,
      "byteStride": 12,
      "name": "floatBufferViews",
      "target": 34962
    },
    {
      "buffer": 0,
      "byteLength": 451632,
      "byteOffset": 1910960,
      "byteStride": 16,
      "name": "floatBufferViews",
      "target": 34962
    }
  ],
  "buffers": [
    {
      "byteLength": 2362592,
      "uri": "scene.bin"
    }
  ],
  "images": [
    {
      "uri": "textures/BMD_WhiteMarble_baseColor.png"
    },
    {
      "uri": "textures/Green_Python_baseColor.png"
    },
    {
      "uri": "textures/Green_Python_normal.png"
    }
  ],
  "materials": [
    {
      "doubleSided": true,
      "emissiveFactor": [
        0,
        0,
        0
      ],
      "name": "BMD_WhiteMarble",
      "pbrMetallicRoughness": {
        "baseColorFactor": [
          1,
          1,
          1,
          1
        ],
        "baseColorTexture": {
          "index": 0,
          "texCoord": 0
        },
        "metallicFactor": 0,
        "roughnessFactor": 0
      }
    },
    {
      "doubleSided": true,
      "name": "Green_Python",
      "normalTexture": {
        "index": 2,
        "scale": 1,
        "texCoord": 0
      },
      "pbrMetallicRoughness": {
        "baseColorFactor": [
          1,
          1,
          1,
          1
        ],
        "baseColorTexture": {
          "index": 1,
          "texCoord": 0
        },
        "metallicFactor": 0,
        "roughnessFactor": 0.7738920404453119
      }
    },
    {
      "doubleSided": true,
      "emissiveFactor": [
        0,
        0,
        0
      ],
      "name": "BLACK",
      "pbrMetallicRoughness": {
        "baseColorFactor": [
          0,
          0,
          0,
          1
        ],
        "metallicFactor": 0,
        "roughnessFactor": 0.5
      }
    }
  ],
  "meshes": [
    {
      "primitives": [
        {
          "attributes": {
            "NORMAL": 1,
            "POSITION": 0,
            "TEXCOORD_0": 2
          },
          "indices": 3,
          "material": 0,
          "mode": 4
        }
      ]
    },
    {
      "primitives": [
        {
          "attributes": {
            "NORMAL": 5,
            "POSITION": 4,
            "TANGENT": 6,
            "TEXCOORD_0": 7
          },
          "indices": 8,
          "material": 1,
          "mode": 4
        }
      ]
    },
    {
      "primitives": [
        {
          "attributes": {
            "NORMAL": 10,
            "POSITION": 9,
            "TEXCOORD_0": 11
          },
          "indices": 12,
          "material": 2,
          "mode": 4
        }
      ]
    }
  ],
  "nodes": [
    {
      "children": [
        1
      ],
      "name": "RootNode (gltf orientation matrix)",
      "rotation": [
        -0.70710678118654746,
        -0,
        -0,
        0.70710678118654757
      ]
    },
    {
      "children": [
        2
      ],
      "name": "RootNode (model correction matrix)"
    },
    {
      "children": [
        3
      ],
      "name": "root"
    },
    {
      "children": [
        4,
        9
      ],
      "matrix": [
        1,
        0,
        0,
        0,
        0,
        2.2204460492503131e-16,
        1,
        0,
        0,
        -1,
        2.2204460492503131e-16,
        0,
        0,
        0,
        0,
        1
      ],
      "name": "GLTF_SceneRootNode"
    },
    {
      "children": [
        5,
        7
      ],
      "matrix": [
        0.35506953728542179,
        0.9345721935898863,
        -0.022370486371653307,
        0,
        -0.9336992146633023,
        0.35335296275037675,
        -0.057857240278665817,
        0,
        -0.046167090324699227,
        0.041430649091206126,
        0.99807419618324589,
        0,
        0.629921555519104,
        1.4305384159088135,
        0.04642072319984436,
        1
      ],
      "name": "OBJECTS_4"
    },
    {
      "children": [
        6
      ],
      "matrix": [
        1,
        0,
        0,
        0,
        0,
        1,
        0,
        0,
        0,
        0,
        1,
        0,
        0.050653785467147827,
        0.041602134704589844,
        0.012816796079277992,
        1
      ],
      "name": "MBlab_bd1547382886.8075042_2"
    },
    {
      "mesh": 0,
      "name": ""
    },
    {
      "children": [
        8
      ],
      "matrix": [
        0.022747882761089168,
        -0.033048217477123186,
        0.10360319857644525,
        0,
        -0.062999275166748761,
        0.082269713053151963,
        0.04007566900769275,
        0,
        -0.088639143206345278,
        -0.066953585701499244,
        -0.0018951521394403824,
        0,
        -0.050653696060180664,
        -0.041601896286010742,
        -0.012816792353987694,
        1
      ],
      "name": "tentacle1_3"
    },
    {
      "mesh": 1,
      "name": ""
    },
    {
      "children": [
        10
      ],
      "matrix": [
        3.772158145904541,
        0,
        0,
        0,
        0,
        3.772158145904541,
        0,
        0,
        0,
        0,
        3.772158145904541,
        0,
        0.69826120138168335,
        1.2246723175048828,
        -0.13568083941936493,
        1
      ],
      "name": "Plane_5"
    },
    {
      "mesh": 2,
      "name": ""
    }
  ],
  "samplers": [
    {
      "magFilter": 9729,
      "minFilter": 9987,
      "wrapS": 10497,
      "wrapT": 10497
    }
  ],
  "scene": 0,
  "scenes": [
    {
      "name": "OSG_Scene",
      "nodes": [
        0
      ]
    }
  ],
  "textures": [
    {
      "sampler": 0,
      "source": 0
    },
    {
      "sampler": 0,
      "source": 1
    },
    {
      "sampler": 0,
      "source": 2
    }
  ]
}

